<mxfile host="app.diagrams.net" modified="2023-11-09T04:23:03.002Z" agent="Mozilla/5.0 (Windows NT 10.0; Win64; x64) AppleWebKit/537.36 (KHTML, like Gecko) Chrome/119.0.0.0 Safari/537.36" etag="sTWBpwiwAh8IFnsN51za" version="22.1.0" type="device">
  <diagram name="Page-1" id="8DdgHT_lzrCupyF-qvgf">
    <mxGraphModel dx="1242" dy="822" grid="1" gridSize="10" guides="1" tooltips="1" connect="1" arrows="1" fold="1" page="1" pageScale="1" pageWidth="1169" pageHeight="827" math="0" shadow="0">
      <root>
        <mxCell id="0" />
        <mxCell id="1" parent="0" />
        <mxCell id="XoGYOiqfx8qt8Q36udEH-1" value="" style="strokeWidth=1;shadow=0;dashed=0;align=left;html=1;shape=mxgraph.mockup.containers.browserWindow;rSize=0;strokeColor=#666666;strokeColor2=#008cff;strokeColor3=#c4c4c4;mainText=,;recursiveResize=0;" parent="1" vertex="1">
          <mxGeometry width="1160" height="820" as="geometry" />
        </mxCell>
        <mxCell id="XoGYOiqfx8qt8Q36udEH-2" value="Login" style="strokeWidth=1;shadow=0;dashed=0;align=center;html=1;shape=mxgraph.mockup.containers.anchor;fontSize=17;fontColor=#666666;align=left;whiteSpace=wrap;" parent="XoGYOiqfx8qt8Q36udEH-1" vertex="1">
          <mxGeometry x="60" y="12" width="150" height="26" as="geometry" />
        </mxCell>
        <mxCell id="XoGYOiqfx8qt8Q36udEH-3" value="https://www.hh2023.com" style="strokeWidth=1;shadow=0;dashed=0;align=center;html=1;shape=mxgraph.mockup.containers.anchor;rSize=0;fontSize=17;fontColor=#666666;align=left;" parent="XoGYOiqfx8qt8Q36udEH-1" vertex="1">
          <mxGeometry x="130" y="60" width="250" height="26" as="geometry" />
        </mxCell>
        <mxCell id="XoGYOiqfx8qt8Q36udEH-24" value="" style="html=1;aspect=fixed;strokeColor=#B20000;shadow=0;fillColor=#e51400;verticalAlign=top;labelPosition=center;verticalLabelPosition=bottom;shape=mxgraph.gcp2.network;fontColor=#ffffff;opacity=10;" parent="XoGYOiqfx8qt8Q36udEH-1" vertex="1">
          <mxGeometry x="375" y="300" width="430" height="430" as="geometry" />
        </mxCell>
        <mxCell id="XoGYOiqfx8qt8Q36udEH-25" value="&lt;b&gt;&lt;font style=&quot;font-size: 19px;&quot; color=&quot;#ff0000&quot;&gt;HH 2023&lt;/font&gt;&lt;/b&gt;" style="shape=rect;strokeColor=none;fillColor=#333333;fontColor=#FFFFFF;align=left;spacing=16;fontSize=13;spacingLeft=8;whiteSpace=wrap;html=1;" parent="XoGYOiqfx8qt8Q36udEH-1" vertex="1">
          <mxGeometry y="110" width="1160" height="48" as="geometry" />
        </mxCell>
        <mxCell id="XoGYOiqfx8qt8Q36udEH-26" value="Login" style="text;verticalAlign=middle;align=center;fontColor=#EEFF41;fontSize=14;resizeHeight=1;whiteSpace=wrap;html=1;" parent="XoGYOiqfx8qt8Q36udEH-25" vertex="1">
          <mxGeometry x="1" width="88" height="48" relative="1" as="geometry">
            <mxPoint x="-88" as="offset" />
          </mxGeometry>
        </mxCell>
        <mxCell id="FRqryJ8z9L4HBqqZcY_s-2" value="Create Survey" style="text;strokeColor=none;fillColor=none;html=1;fontSize=34;fontStyle=1;verticalAlign=middle;align=center;fontColor=#FF0000;" vertex="1" parent="XoGYOiqfx8qt8Q36udEH-1">
          <mxGeometry x="440" y="158" width="280" height="60" as="geometry" />
        </mxCell>
        <mxCell id="FRqryJ8z9L4HBqqZcY_s-4" value="Name" style="fillColor=none;strokeColor=none;align=left;fontSize=14;fontStyle=1" vertex="1" parent="XoGYOiqfx8qt8Q36udEH-1">
          <mxGeometry x="220" y="320" width="260" height="40" as="geometry" />
        </mxCell>
        <mxCell id="FRqryJ8z9L4HBqqZcY_s-5" value="Office ergonomics" style="html=1;shadow=0;dashed=0;shape=mxgraph.bootstrap.rrect;rSize=5;fillColor=none;strokeColor=#999999;align=left;spacing=15;fontSize=14;fontColor=#6C767D;" vertex="1" parent="XoGYOiqfx8qt8Q36udEH-1">
          <mxGeometry width="800" height="30" relative="1" as="geometry">
            <mxPoint x="220" y="360" as="offset" />
          </mxGeometry>
        </mxCell>
        <mxCell id="FRqryJ8z9L4HBqqZcY_s-6" value="Start Date" style="fillColor=none;strokeColor=none;align=left;fontSize=14;fontStyle=1" vertex="1" parent="XoGYOiqfx8qt8Q36udEH-1">
          <mxGeometry width="260" height="40" relative="1" as="geometry">
            <mxPoint x="220" y="400" as="offset" />
          </mxGeometry>
        </mxCell>
        <mxCell id="FRqryJ8z9L4HBqqZcY_s-7" value="09-Nov-2023" style="html=1;shadow=0;dashed=0;shape=mxgraph.bootstrap.rrect;rSize=5;fillColor=none;strokeColor=#999999;align=left;spacing=15;fontSize=14;fontColor=#6C767D;" vertex="1" parent="XoGYOiqfx8qt8Q36udEH-1">
          <mxGeometry width="380" height="30" relative="1" as="geometry">
            <mxPoint x="220" y="440" as="offset" />
          </mxGeometry>
        </mxCell>
        <mxCell id="FRqryJ8z9L4HBqqZcY_s-18" value="Description" style="fillColor=none;strokeColor=none;align=left;fontSize=14;fontStyle=1" vertex="1" parent="XoGYOiqfx8qt8Q36udEH-1">
          <mxGeometry width="260" height="40" relative="1" as="geometry">
            <mxPoint x="220" y="580" as="offset" />
          </mxGeometry>
        </mxCell>
        <mxCell id="FRqryJ8z9L4HBqqZcY_s-19" value="" style="html=1;shadow=0;dashed=0;shape=mxgraph.bootstrap.rrect;rSize=5;fillColor=none;strokeColor=#999999;align=left;spacing=15;fontSize=14;fontColor=#6C767D;" vertex="1" parent="XoGYOiqfx8qt8Q36udEH-1">
          <mxGeometry width="560" height="50" relative="1" as="geometry">
            <mxPoint x="220" y="630" as="offset" />
          </mxGeometry>
        </mxCell>
        <mxCell id="FRqryJ8z9L4HBqqZcY_s-20" value="End Date" style="fillColor=none;strokeColor=none;align=left;fontSize=14;fontStyle=1" vertex="1" parent="XoGYOiqfx8qt8Q36udEH-1">
          <mxGeometry x="640" y="400" width="260" height="40" as="geometry" />
        </mxCell>
        <mxCell id="FRqryJ8z9L4HBqqZcY_s-21" value="09-Dec-2023" style="html=1;shadow=0;dashed=0;shape=mxgraph.bootstrap.rrect;rSize=5;fillColor=none;strokeColor=#999999;align=left;spacing=15;fontSize=14;fontColor=#6C767D;" vertex="1" parent="XoGYOiqfx8qt8Q36udEH-1">
          <mxGeometry x="640" y="440" width="380" height="30" as="geometry" />
        </mxCell>
        <mxCell id="FRqryJ8z9L4HBqqZcY_s-23" value="Choose File" style="fillColor=#FEFEFE;strokeColor=#AAAAAA;fontSize=14;gradientColor=#F0F0F0;" vertex="1" parent="XoGYOiqfx8qt8Q36udEH-1">
          <mxGeometry x="220" y="530" width="90" height="30" as="geometry" />
        </mxCell>
        <mxCell id="FRqryJ8z9L4HBqqZcY_s-24" value="No file chosen" style="fillColor=none;strokeColor=none;align=left;fontSize=14;spacing=5;" vertex="1" parent="XoGYOiqfx8qt8Q36udEH-1">
          <mxGeometry x="330" y="530" width="100" height="30" as="geometry" />
        </mxCell>
        <mxCell id="FRqryJ8z9L4HBqqZcY_s-22" value="Survey Logo" style="fillColor=none;strokeColor=none;align=left;fontSize=14;fontStyle=1" vertex="1" parent="XoGYOiqfx8qt8Q36udEH-1">
          <mxGeometry x="220" y="490" width="150" height="40" as="geometry" />
        </mxCell>
        <mxCell id="FRqryJ8z9L4HBqqZcY_s-26" value="NEXT &amp;gt;&amp;gt;" style="rounded=1;fillColor=#e51400;strokeColor=#B20000;html=1;whiteSpace=wrap;fontColor=#ffffff;align=center;verticalAlign=middle;fontStyle=1;fontSize=18;sketch=0;" vertex="1" parent="XoGYOiqfx8qt8Q36udEH-1">
          <mxGeometry x="822" y="720" width="188" height="33" as="geometry" />
        </mxCell>
        <mxCell id="FRqryJ8z9L4HBqqZcY_s-38" value="1" style="shape=ellipse;fontSize=12;strokeColor=#B20000;fillColor=#e51400;fontColor=#ffffff;align=center;verticalAlign=middle;html=1;" vertex="1" parent="XoGYOiqfx8qt8Q36udEH-1">
          <mxGeometry x="408" y="230" width="24" height="24" as="geometry" />
        </mxCell>
        <mxCell id="FRqryJ8z9L4HBqqZcY_s-39" value="Survey Details" style="shape=rect;fontColor=#4d4d4dlfontSize=13;strokeColor=none;fillColor=none;html=1;" vertex="1" parent="XoGYOiqfx8qt8Q36udEH-1">
          <mxGeometry x="370" y="260" width="100" height="20" as="geometry" />
        </mxCell>
        <mxCell id="FRqryJ8z9L4HBqqZcY_s-40" value="" style="shape=line;strokeColor=#b3b3b3;" vertex="1" parent="XoGYOiqfx8qt8Q36udEH-1">
          <mxGeometry x="440" y="237" width="110" height="10" as="geometry" />
        </mxCell>
        <mxCell id="FRqryJ8z9L4HBqqZcY_s-41" value="2" style="shape=ellipse;fontSize=12;strokeColor=none;fillColor=#9e9e9e;fontColor=#ffffff;align=center;verticalAlign=middle;html=1;" vertex="1" parent="XoGYOiqfx8qt8Q36udEH-1">
          <mxGeometry x="560" y="230" width="24" height="24" as="geometry" />
        </mxCell>
        <mxCell id="FRqryJ8z9L4HBqqZcY_s-42" value="Questionaire" style="shape=rect;fontColor=#4d4d4dlfontSize=13;strokeColor=none;fillColor=none;html=1;" vertex="1" parent="XoGYOiqfx8qt8Q36udEH-1">
          <mxGeometry x="522" y="260" width="100" height="20" as="geometry" />
        </mxCell>
        <mxCell id="FRqryJ8z9L4HBqqZcY_s-43" value="" style="shape=line;strokeColor=#b3b3b3;" vertex="1" parent="XoGYOiqfx8qt8Q36udEH-1">
          <mxGeometry x="592" y="237" width="110" height="10" as="geometry" />
        </mxCell>
        <mxCell id="FRqryJ8z9L4HBqqZcY_s-44" value="3" style="shape=ellipse;fontSize=12;strokeColor=none;fillColor=#9e9e9e;fontColor=#ffffff;html=1;" vertex="1" parent="XoGYOiqfx8qt8Q36udEH-1">
          <mxGeometry x="712" y="230" width="24" height="24" as="geometry" />
        </mxCell>
        <mxCell id="FRqryJ8z9L4HBqqZcY_s-45" value="Create" style="shape=rect;fontColor=#4d4d4dlfontSize=13;strokeColor=none;fillColor=none;align=center;verticalAlign=middle;html=1;" vertex="1" parent="XoGYOiqfx8qt8Q36udEH-1">
          <mxGeometry x="674" y="260" width="100" height="20" as="geometry" />
        </mxCell>
      </root>
    </mxGraphModel>
  </diagram>
</mxfile>
